<?xml version="1.0" encoding="iso-8859-1"?>
<!-- Generator: Adobe Illustrator 19.0.0, SVG Export Plug-In . SVG Version: 6.00 Build 0)  -->
<svg version="1.1" id="Capa_1" xmlns="http://www.w3.org/2000/svg" xmlns:xlink="http://www.w3.org/1999/xlink" x="0px" y="0px"
	 viewBox="0 0 496 496" style="enable-background:new 0 0 496 496;" xml:space="preserve">
<g>
	<path style="fill:#F0BC5E;" d="M248,176c-32,0-48,32-48,32h96C296,208,280,176,248,176z"/>
	<polygon style="fill:#F0BC5E;" points="47.752,488 448.248,488 400.248,296 95.752,296 	"/>
</g>
<rect x="216" y="144" width="64" height="16"/>
<path d="M480,136v16.344l-168.016,7.304c-0.032-5.728-0.872-11.264-2.32-16.544L400,126.68V104H278.912
	c-2.304-1.28-4.704-2.392-7.176-3.384l-7.104-85.312C263.92,6.72,256.616,0,248,0s-15.92,6.72-16.632,15.304l-7.112,85.312
	c-2.464,0.992-4.872,2.104-7.176,3.384H96v22.68l90.336,16.416c-1.448,5.288-2.288,10.816-2.32,16.544L16,152.344V136H0v47.024
	l42.992,5.608C41.144,192.032,40,195.864,40,200c0,13.232,10.768,24,24,24s24-10.768,24-24c0-1.936-0.288-3.792-0.728-5.592
	L136,200.76V248h-8v-8h-16v32h16v-8h32v8h16v-32h-16v8h-8v-20l28.568-21.424l4.656,0.608C188.296,216.896,197.28,224,208,224h80
	c10.72,0,19.712-7.104,22.784-16.824l4.656-0.608L344,228v20h-8v-8h-16v32h16v-8h32v8h16v-32h-16v8h-8v-47.24l48.728-6.352
	c-0.44,1.8-0.728,3.656-0.728,5.592c0,13.232,10.768,24,24,24s24-10.768,24-24c0-4.136-1.144-7.968-2.992-11.368L496,183.024V136
	H480z M64,208c-4.416,0-8-3.584-8-8s3.584-8,8-8s8,3.584,8,8S68.416,208,64,208z M432,208c-4.416,0-8-3.584-8-8s3.584-8,8-8
	s8,3.584,8,8S436.416,208,432,208z M303.336,127.992c-1.624-2.8-3.44-5.48-5.456-7.992h49.4L303.336,127.992z M247.304,16.632
	c0.064-0.704,1.328-0.704,1.392,0l6.648,79.824C252.936,96.176,250.488,96,248,96s-4.936,0.176-7.344,0.456L247.304,16.632z
	 M148.72,120h49.4c-2.016,2.512-3.832,5.192-5.456,7.992L148.72,120z M16,168.352l168,7.304v15.232L16,168.976V168.352z M152,208
	v-5.16l5.856,0.768L152,208z M296,200c0,4.416-3.584,8-8,8h-80c-4.416,0-8-3.584-8-8v-40c0-26.472,21.528-48,48-48s48,21.528,48,48
	V200z M344,208l-5.856-4.392l5.856-0.76V208z M312,190.896v-15.232l168-7.304v0.624L312,190.896z"/>
<path d="M57.752,288l-52,208h484.496l-52-208H57.752z M26.248,480l44-176h355.504l44,176H26.248z"/>
<rect x="240" y="320" width="16" height="32"/>
<rect x="240" y="376" width="16" height="32"/>
<rect x="240" y="432" width="16" height="32"/>
<g>
</g>
<g>
</g>
<g>
</g>
<g>
</g>
<g>
</g>
<g>
</g>
<g>
</g>
<g>
</g>
<g>
</g>
<g>
</g>
<g>
</g>
<g>
</g>
<g>
</g>
<g>
</g>
<g>
</g>
</svg>
