<?xml version="1.0" encoding="iso-8859-1"?>
<!-- Generator: Adobe Illustrator 21.0.0, SVG Export Plug-In . SVG Version: 6.00 Build 0)  -->
<svg xmlns="http://www.w3.org/2000/svg" xmlns:xlink="http://www.w3.org/1999/xlink" version="1.1" id="Capa_1" x="0px" y="0px" viewBox="0 0 512 512" style="enable-background:new 0 0 512 512;" xml:space="preserve" width="512" height="512">
<g>
	<rect x="80.21" style="fill:#EDF5FF;" width="351.58" height="512"/>
	<rect x="256" style="fill:#DAEAFF;" width="175.79" height="512"/>
	<rect x="140.21" y="53.09" style="fill:#00459F;" width="231.58" height="212.12"/>
	<g>
		<rect x="140.812" y="308.91" style="fill:#AEADB3;" width="61.933" height="30"/>
		<rect x="225.03" y="308.91" style="fill:#AEADB3;" width="61.94" height="30"/>
		<rect x="309.254" y="308.91" style="fill:#8B8992;" width="61.934" height="30"/>
	</g>
	<g>
		<rect x="140.812" y="368.91" style="fill:#AEADB3;" width="61.933" height="30"/>
		<rect x="225.03" y="368.91" style="fill:#AEADB3;" width="61.94" height="30"/>
		<rect x="309.254" y="368.91" style="fill:#8B8992;" width="61.934" height="30"/>
	</g>
	<g>
		<rect x="140.812" y="428.91" style="fill:#AEADB3;" width="61.933" height="30"/>
		<rect x="225.03" y="428.91" style="fill:#AEADB3;" width="61.94" height="30"/>
		<rect x="309.254" y="428.91" style="fill:#8B8992;" width="61.934" height="30"/>
	</g>
	<rect x="256" y="308.91" style="fill:#8B8992;" width="30.97" height="30"/>
	<rect x="256" y="368.91" style="fill:#8B8992;" width="30.97" height="30"/>
	<rect x="256" y="428.91" style="fill:#8B8992;" width="30.97" height="30"/>
	<rect x="256" y="53.09" style="fill:#002D6B;" width="115.79" height="212.12"/>
</g>















</svg>
