<svg height="496pt" viewBox="-48 0 496 496.00128" width="496pt" xmlns="http://www.w3.org/2000/svg"><path d="m392 296c0 106.039062-85.960938 192-192 192s-192-85.960938-192-192 85.960938-192 192-192 192 85.960938 192 192zm0 0" fill="#64a5f8"/><g fill="#78b75b"><path d="m104 416 24-24v-24l-40-8 16-48-40 8-8-32 40-32 16-24-32-40-24 16-22.527344-7.511719c-16.167968 28.144531-25.472656 60.730469-25.472656 95.511719 0 74.503906 42.464844 139.042969 104.480469 170.875zm0 0"/><path d="m327.679688 439.351562-15.679688-31.351562h-24l-8-32h-40v40l-24 32v39.289062c42.730469-3.527343 81.480469-21.015624 111.679688-47.9375zm0 0"/><path d="m184 336 8-24 24-32 24 24 16 24-24 16-32 16zm0 0"/><path d="m184 160-16 32 24 8 8 32 48-24 24-16 24 24v56l24 8 16 32 55.800781-7.964844c.105469-2.675781.199219-5.335937.199219-8.035156 0-106.039062-85.960938-192-192-192v32zm0 0"/></g><path d="m168 64c0-31.503906-26.007812-56.925781-57.71875-55.976562-30.648438.921874-54.28125 27.664062-54.28125 58.320312 0 13.960938 5.066406 27.441406 14.257812 37.945312l41.742188 47.710938 41.746094-47.703125c9.191406-10.503906 14.253906-23.992187 14.253906-37.953125zm0 0" fill="#ed5c58"/><path d="m136 64c0 13.257812-10.746094 24-24 24s-24-10.742188-24-24c0-13.253906 10.746094-24 24-24s24 10.746094 24 24zm0 0" fill="#fff"/><path d="m200 8h64v48h-64zm0 0" fill="#ed5c58"/><path d="m200 496c-110.28125 0-200-89.71875-200-200 0-68.222656 34.265625-131.085938 91.664062-168.144531l8.679688 13.441406c-52.816406 34.105469-84.34375 91.929687-84.34375 154.703125 0 101.464844 82.542969 184 184 184s184-82.535156 184-184c0-101.460938-82.542969-184-184-184-17.03125 0-33.902344 2.328125-50.144531 6.90625l-4.351563-15.394531c17.664063-4.984375 35.992188-7.511719 54.496094-7.511719 110.28125 0 200 89.722656 200 200 0 110.28125-89.71875 200-200 200zm0 0"/><path d="m336 320c-3 0-5.785156-1.6875-7.152344-4.421875l-14.511718-29.039063-20.855469-6.953124c-3.28125-1.089844-5.480469-4.136719-5.480469-7.585938v-52.6875l-17.015625-17.015625-18.542969 12.359375c-.28125.183594-.5625.351562-.855468.496094l-48 24c-2.167969 1.089844-4.714844 1.136718-6.921876.113281-2.199218-1.007813-3.832031-2.96875-4.414062-5.328125l-6.9375-27.734375-19.832031-6.617187c-2.199219-.730469-3.976563-2.382813-4.855469-4.519532-.878906-2.136718-.800781-4.5625.230469-6.640625l16-32c.152343-.296875.320312-.585937.496093-.855469l14.648438-21.992187v-125.578125c0-4.421875 3.585938-8 8-8h64c4.417969 0 8 3.578125 8 8v48c0 4.425781-3.582031 8-8 8h-56v72c0 1.578125-.472656 3.128906-1.34375 4.441406l-15.71875 23.582032-11.65625 23.304687 15.246094 5.089844c2.59375.855469 4.570312 2.992187 5.234375 5.648437l5.582031 22.320313 38.632812-19.3125 23.585938-15.730469c3.175781-2.125 7.398438-1.695312 10.09375 1l24 24c1.503906 1.496094 2.34375 3.53125 2.34375 5.65625v50.234375l18.527344 6.175781c2.007812.664063 3.671875 2.109375 4.625 4.007813l13.425781 26.839843 50.285156-7.183593 2.265625 15.839843-56 8c-.375.0625-.761718.085938-1.128906.085938zm-128-272h48v-32h-48zm0 0"/><path d="m104.113281 465.3125-8-48c-.425781-2.542969.40625-5.144531 2.230469-6.96875l21.65625-21.65625v-14.132812l-33.566406-6.714844c-2.25-.445313-4.191406-1.839844-5.34375-3.832032-1.152344-1.992187-1.402344-4.367187-.671875-6.542968l11.636719-34.917969-26.476563 5.292969c-4.21875.859375-8.296875-1.757813-9.335937-5.902344l-8-32c-.761719-3.03125.320312-6.222656 2.765624-8.183594l39.023438-31.214844 12.066406-18.105468-23.761718-29.703125-17.894532 11.925781c-2.046875 1.386719-4.617187 1.738281-6.96875.929688l-24-8 5.0625-15.167969 20.289063 6.757812 20.746093-13.832031c3.445313-2.300781 8.09375-1.574219 10.679688 1.65625l32 40c2.175781 2.730469 2.34375 6.539062.40625 9.441406l-16 24c-.457031.6875-1.015625 1.296875-1.664062 1.816406l-35.992188 28.792969 4.90625 19.613281 32.519531-6.496093c2.816407-.527344 5.679688.417969 7.566407 2.546875 1.886718 2.140625 2.496093 5.125 1.59375 7.832031l-13.136719 39.398437 31.113281 6.222657c3.75.738281 6.4375 4.015625 6.4375 7.832031v24c0 2.128906-.839844 4.160156-2.34375 5.65625l-21.085938 21.089844 7.328126 43.941406zm0 0"/><path d="m200 368c-2.597656 0-5.136719-1.261719-6.664062-3.558594l-16-24c-1.367188-2.054687-1.710938-4.625-.933594-6.96875l8-24c.269531-.816406.671875-1.574218 1.191406-2.261718l24-32c1.390625-1.859376 3.519531-3.019532 5.832031-3.175782 2.304688-.210937 4.582031.679688 6.222657 2.316406l24 24c.375.378907.703124.785157 1 1.21875l16 24c2.449218 3.679688 1.457031 8.640626-2.214844 11.09375l-24 16c-.28125.183594-.5625.351563-.855469.496094l-32 16c-1.144531.570313-2.371094.839844-3.578125.839844zm-7.167969-33.175781 9.914063 14.863281 25.238281-12.613281 16.929687-11.289063-11.128906-16.6875-16.914062-16.914062-17.6875 23.578125zm0 0"/><path d="m224 488h-16v-40c0-1.734375.5625-3.414062 1.601562-4.796875l22.398438-29.867187v-37.335938c0-4.421875 3.585938-8 8-8h40c3.671875 0 6.871094 2.496094 7.761719 6.066406l6.488281 25.933594h17.75c3.03125 0 5.800781 1.714844 7.160156 4.425781l16 32-14.3125 7.160157-13.792968-27.585938h-19.054688c-3.671875 0-6.871094-2.496094-7.757812-6.0625l-6.488282-25.9375h-25.753906v32c0 1.738281-.558594 3.417969-1.597656 4.800781l-22.402344 29.863281zm0 0"/><path d="m112 160c-2.3125 0-4.496094-.992188-6.015625-2.734375l-41.742187-47.703125c-10.472657-11.96875-16.242188-27.3125-16.242188-43.210938 0-35.535156 27.832031-65.292968 62.03125-66.3281245 17.519531-.4765625 34.007812 5.8906245 46.539062 18.0507815 12.535157 12.160156 19.429688 28.472656 19.429688 45.925781v2.351562c0 15.898438-5.765625 31.242188-16.238281 43.210938l-41.746094 47.703125c-1.519531 1.742187-3.703125 2.734375-6.015625 2.734375zm0-144c-.496094 0-.984375.007812-1.480469.023438-25.65625.769531-46.519531 23.347656-46.519531 50.328124 0 12.027344 4.359375 23.625 12.28125 32.683594l35.71875 40.8125 35.71875-40.824218c7.921875-9.046876 12.28125-20.644532 12.28125-32.671876v-2.351562c0-13.09375-5.175781-25.328125-14.566406-34.445312-9.050782-8.769532-20.863282-13.554688-33.433594-13.554688zm0 0"/><path d="m112 96c-17.648438 0-32-14.351562-32-32s14.351562-32 32-32 32 14.351562 32 32-14.351562 32-32 32zm0-48c-8.824219 0-16 7.175781-16 16s7.175781 16 16 16 16-7.175781 16-16-7.175781-16-16-16zm0 0"/></svg>