<?xml version="1.0" encoding="iso-8859-1"?>
<!-- Generator: Adobe Illustrator 19.0.0, SVG Export Plug-In . SVG Version: 6.00 Build 0)  -->
<svg version="1.1" id="Layer_1" xmlns="http://www.w3.org/2000/svg" xmlns:xlink="http://www.w3.org/1999/xlink" x="0px" y="0px"
	 viewBox="0 0 512 512" style="enable-background:new 0 0 512 512;" xml:space="preserve">
<path style="fill:#E0E0E0;" d="M151.56,260.209l50.304-4.079v-77.494h127.909c0-17.661-14.317-31.977-31.977-31.977H116.591
	l-21.318,31.977h73.281L151.56,260.209z"/>
<polygon style="fill:#78B9EB;" points="423.332,238.173 329.773,178.635 201.864,178.635 201.864,256.13 "/>
<polygon style="fill:#4E8EB5;" points="201.864,256.13 423.332,238.173 393.52,219.202 201.864,234.742 "/>
<path style="fill:#FFFFFF;" d="M89.309,280.531l-26.014,26.014H41.977l-21.318,31.977c0,0,255.818,0,362.409,0
	c74.614,0,117.25-106.591,117.25-106.591l-370.955,30.077C114.237,263.235,100.04,269.8,89.309,280.531z"/>
<path style="fill:#E0E0E0;" d="M404.386,317.204c-87.91,0-295.658,0-369.515,0l-14.212,21.318c0,0,255.818,0,362.409,0
	c33.061,0,59.837-20.929,79.415-44.238C446.169,307.658,426.711,317.204,404.386,317.204z"/>
<polygon style="fill:#4E8EB5;" points="319.114,199.954 329.773,178.635 201.864,178.635 201.864,199.954 "/>
<rect x="215.68" y="199.959" style="fill:#FFFFFF;" width="15" height="31.978"/>
<path style="fill:#78B9EB;" d="M446.489,338.522c-2.469-12.163-13.222-21.318-26.114-21.318h-6.259
	c0.591,1.669,0.929,3.458,0.929,5.33c0,6.163-4.567,11.47-11.581,15.989H0V510.41h512V338.522H446.489z"/>
<polygon style="fill:#898890;" points="156.092,238.453 151.56,260.209 201.864,256.13 201.864,234.742 "/>
<path style="fill:#4E8EB5;" d="M403.465,338.522H11v21.318h318.773C329.773,359.84,380.156,353.54,403.465,338.522z"/>
<path style="fill:#FFFFFF;" d="M212.523,399.817h-121v-16h121V399.817z M76.523,399.817H52.636v-16h23.887V399.817z"/>
<rect x="415.05" y="267.069" width="21.317" height="15"/>
<rect x="383.07" y="267.069" width="21.318" height="15"/>
<rect x="191.21" y="288.389" width="42.636" height="15"/>
<rect x="159.23" y="288.389" width="21.318" height="15"/>
<rect x="244.5" y="288.389" width="21.318" height="15"/>
<path d="M497.159,224.663v-33.089l-113.302,12.589l-46.819-29.794c-2.134-19.768-18.916-35.211-39.242-35.211H183.652L121.894,77.4
	l-10.606,10.606l51.151,51.151h-49.862l-31.318,46.977h78.071l-13.969,67.051l-16.604,1.346
	c-16.882,1.369-32.775,8.719-44.751,20.695l-23.817,23.816H37.963l-31.317,46.98h397.741v-15H34.673l11.318-16.978h20.411
	l28.21-28.21c9.462-9.462,22.019-15.269,35.357-16.351l12.203-0.99l0,0l34.077-2.763l149.249-12.101l98.44-7.981l0,0l64.249-5.209
	c-7.193,14.619-21.729,40.635-42.559,61.07l10.504,10.708c32.779-32.157,50.414-75.665,51.149-77.501l4.496-11.239L497.159,224.663z
	 M482.159,225.878l-176.863,14.34v-12.234l176.863-19.652V225.878z M290.296,214.559v26.876l-80.932,6.562v-61.862h118.225
	l32.482,20.671L290.296,214.559z M109.287,171.135l11.318-16.977h177.191c10.882,0,20.128,7.137,23.302,16.977H194.364v78.078
	l-33.417,2.709l16.831-80.788L109.287,171.135L109.287,171.135z"/>
<path d="M329.772,377.999h90.603c18.829,0,34.147-15.318,34.147-34.147s-15.318-34.148-34.147-34.148v15
	c10.558,0,19.147,8.59,19.147,19.148s-8.589,19.147-19.147,19.147h-90.603V377.999z"/>
<path d="M452.353,373.658v15c10.558,0,19.147,8.59,19.147,19.148s-8.59,19.147-19.147,19.147H265.818v15h186.534
	c18.829,0,34.147-15.319,34.147-34.148S471.182,373.658,452.353,373.658z"/>
<rect x="137.91" y="426.949" width="106.59" height="15"/>
<rect x="105.93" y="426.949" width="15.989" height="15"/>
<rect x="297.8" y="362.999" width="15.988" height="15"/>
<path d="M265.818,16.59c7.619,0,13.818,6.199,13.818,13.818h15c0-7.62,6.198-13.818,13.817-13.818s13.818,6.199,13.818,13.818h15
	c0-15.891-12.928-28.818-28.818-28.818c-8.438,0-16.042,3.647-21.317,9.446c-5.275-5.799-12.88-9.446-21.318-9.446
	C249.928,1.59,237,14.518,237,30.408h15C252,22.789,258.199,16.59,265.818,16.59z"/>
<path d="M404.387,90.204c7.619,0,13.817,6.199,13.817,13.818h15c0-7.62,6.199-13.818,13.818-13.818s13.818,6.199,13.818,13.818h15
	c0-15.891-12.928-28.818-28.818-28.818c-8.438,0-16.043,3.647-21.318,9.446c-5.275-5.799-12.879-9.446-21.317-9.446
	c-15.891,0-28.818,12.928-28.818,28.818h15C390.568,96.402,396.768,90.204,404.387,90.204z"/>
<g>
</g>
<g>
</g>
<g>
</g>
<g>
</g>
<g>
</g>
<g>
</g>
<g>
</g>
<g>
</g>
<g>
</g>
<g>
</g>
<g>
</g>
<g>
</g>
<g>
</g>
<g>
</g>
<g>
</g>
</svg>
