<svg id="Layer_1" enable-background="new 0 0 512.017 512.017" height="512" viewBox="0 0 512.017 512.017" width="512" xmlns="http://www.w3.org/2000/svg"><path d="m360.257 191.104c-30.512-30.968-71.832-47.97-114.453-47.97 0 0-112.462.17-116.381.5l-28.926 66.8h278.489c.237-.237 1.781 1.487-18.729-19.33z" fill="#ade4f9"/><path d="m502.509 274.546c-3.591 11.924-2.735 9.065-8.111 26.94-2.034 6.762-8.261 11.398-15.322 11.398h-63.096c0-31.05-25.065-56.25-55.991-56.25s-55.992 25.19-55.992 56.25h-119.982c0-31.05-25.065-56.25-55.991-56.25-30.655 0-55.632 24.625-55.982 55.405h-40.213c-13.168-.11-23.786-11.015-23.786-24.245 0-25.19-1.652-41.506 6.221-63.12 14.762-40.322 60.38-76.494 115.16-81.04l-28.926 66.8h140.202c-20.062-71.063-18.687-65.71-18.687-67.3h16.298c20.101 71.2 18.697 65.761 18.697 67.3 128.806 0 122.202-.099 122.302 0l90.046 16.2c13.328 2.4 24.275 11.911 28.556 24.81 4.442 13.389 6.472 16.876 4.597 23.102z" fill="#94a4b1"/><path d="m129.423 143.634-28.926 66.8c-21.967-1.171-41.798-11.43-54.973-30.39 22.108-20.122 51.581-33.727 83.899-36.41z" fill="#a9b6c1"/><g fill="#5e7284"><path d="m84.969 276.924c-7.939 9.58-12.767 21.695-12.927 35.115h-40.213c-13.168-.11-23.786-11.015-23.786-24.245 0-27.827-1.273-41.602 5.657-61.54 17.297 24.98 42.653 42.72 71.269 50.67z"/><path d="m174.585 281.634h138.839c-5.949 8.94-9.427 19.69-9.427 31.25h-119.982c0-11.56-3.481-22.31-9.43-31.25z"/><path d="m500.376 281.634c-1.446 4.791-2.041 6.768-5.978 19.852-2.034 6.761-8.262 11.398-15.322 11.398h-63.096c0-11.56-3.481-22.31-9.43-31.25z"/></g><path d="m359.989 256.634c30.925 0 55.991 25.19 55.991 56.25 0 31.07-25.068 56.25-55.993 56.25s-55.99-25.18-55.99-56.25c0-31.06 25.067-56.25 55.992-56.25zm7.997 56.25c0-4.44-3.579-8.03-7.999-8.03s-7.999 3.59-7.999 8.03 3.579 8.04 7.999 8.04 7.999-3.6 7.999-8.04z" fill="#414754"/><path d="m203.631 143.134-28.496 67.3h-39.994l28.496-67.3z" fill="#d6f7ff"/><path d="m340.51 174.074-15.398 36.36h-60.411l25.796-60.94c18.084 5.249 34.979 13.57 50.013 24.58z" fill="#d6f7ff"/><path d="m128.024 256.634c30.925 0 55.991 25.19 55.991 56.25 0 31.07-25.068 56.25-55.993 56.25-31.904 0-56.817-26.738-55.98-57.095.848-30.73 25.287-55.405 55.982-55.405zm7.997 56.25c0-4.44-3.579-8.03-7.999-8.03-4.419 0-7.999 3.59-7.999 8.03s3.579 8.04 7.999 8.04c4.419 0 7.999-3.6 7.999-8.04z" fill="#414754"/><path d="m128.022 328.924c-8.821 0-15.998-7.195-15.998-16.04 0-8.839 7.177-16.03 15.998-16.03s15.998 7.191 15.998 16.03c0 8.845-7.177 16.04-15.998 16.04zm-.001-16.064.001.024c0-.014-.001-.024-.001-.024z"/><path d="m359.987 328.924c-8.821 0-15.998-7.195-15.998-16.04 0-8.839 7.177-16.03 15.998-16.03s15.998 7.191 15.998 16.03c0 8.845-7.177 16.04-15.998 16.04zm-.001-16.064.001.024c0-.014-.001-.024-.001-.024z"/><path d="m236.002 258.602h-16c-4.418 0-8-3.582-8-8s3.582-8 8-8h16c4.418 0 8 3.582 8 8s-3.582 8-8 8z"/><path d="m128.002 328.913c-8.822 0-16-7.193-16-16.036s7.178-16.036 16-16.036 16 7.193 16 16.036-7.178 16.036-16 16.036zm-.001-16.059.001.023c0-.014-.001-.023-.001-.023z"/><path d="m360.002 328.913c-8.822 0-16-7.193-16-16.036s7.178-16.036 16-16.036 16 7.193 16 16.036-7.178 16.036-16 16.036zm-.002-16.059.001.023c0-.014-.001-.023-.001-.023z"/><path d="m128.002 248.629c-32.333 0-59.126 24.071-63.391 55.373h-32.755c-8.744-.069-15.857-7.415-15.857-16.217v-7.085h16.002c4.418 0 8-3.582 8-8s-3.582-8-8-8h-16c0-5.761-.1-9.543.695-16.142h23.305c4.418 0 8-3.582 8-8s-3.582-8-8-8h-19.95c5.363-17.756 14.745-31.188 27.503-43.519 3.177-3.071 3.263-8.135.193-11.312s-8.135-3.264-11.312-.193c-24.945 24.108-36.434 52.388-36.435 82.285v27.965c0 17.556 14.233 32.079 31.73 32.217h32.691c3.601 32.024 30.735 57.126 63.581 57.126 35.29 0 64-28.822 64-64.249 0-35.428-28.71-64.249-64-64.249zm0 112.497c-26.467 0-48-21.645-48-48.249s21.533-48.249 48-48.249 48 21.644 48 48.249-21.533 48.249-48 48.249z"/><path d="m511.594 267.167-6.056-18.249c-5.208-15.69-18.518-27.25-34.736-30.167l-87.564-15.751-17.265-17.519c-32.771-33.254-76.529-50.354-120.168-50.354-109.267 0-120.704-2.218-149.827 6.96-4.214 1.328-6.553 5.82-5.225 10.035 1.327 4.213 5.818 6.554 10.035 5.225 5.142-1.62 10.364-2.916 15.64-3.905l-23.298 53.805c-2.283 5.273 1.587 11.179 7.341 11.179h278.139l89.361 16.074c10.446 1.879 19.023 9.335 22.383 19.459l5.258 15.846-10.557 35.073h-61.567c-3.938-31.663-30.896-56.249-63.486-56.249s-59.548 24.586-63.486 56.249h-80.514c-4.418 0-8 3.582-8 8s3.582 8 8 8h80.514c3.938 31.663 30.897 56.249 63.486 56.249s59.548-24.586 63.486-56.249h67.514c3.53 0 6.643-2.314 7.661-5.694 13.88-46.115 14.059-44.621 12.931-48.017zm-198.682-100.473c20.861 10.224 33.061 21.288 47.294 35.73h-105.15l-14.483-51.298c24.26 0 46.873 3.087 72.339 15.568zm-178.569-14.362c.749-1.728-6.933-1.206 89.604-1.206l14.483 51.298h-125.778zm225.659 208.794c-26.467 0-48-21.645-48-48.249s21.533-48.249 48-48.249 48 21.644 48 48.249-21.533 48.249-48 48.249z"/><path d="m466.01 263.625c-.98 0 .693.242-24.386-4.138-4.353-.76-7.265-4.905-6.504-9.257.761-4.353 4.904-7.263 9.257-6.504l23 4.018c4.353.76 7.265 4.905 6.504 9.257-.678 3.886-4.056 6.624-7.871 6.624z"/><path d="m69.001 171.626c-4.416 0-8-3.58-8-8 0-7.109 8.638-10.682 13.66-5.66 5.026 5.026 1.444 13.66-5.66 13.66z"/></svg>