<?xml version="1.0" encoding="iso-8859-1"?>
<!-- Generator: Adobe Illustrator 19.0.0, SVG Export Plug-In . SVG Version: 6.00 Build 0)  -->
<svg version="1.1" id="Capa_1" xmlns="http://www.w3.org/2000/svg" xmlns:xlink="http://www.w3.org/1999/xlink" x="0px" y="0px"
	 viewBox="0 0 512 512" style="enable-background:new 0 0 512 512;" xml:space="preserve">
<g>
	<path style="fill:#FFA92C;" d="M189.994,45.006c80.077,0,144.995,64.916,144.995,144.995s-64.918,144.995-144.995,144.995
		c-80.079,0-144.995-64.916-144.995-144.995S109.914,45.006,189.994,45.006L189.994,45.006z M329.041,304.3
		c25.584-31.083,40.947-70.898,40.947-114.299c0-99.409-80.587-179.994-179.994-179.994C90.585,10.007,10,90.592,10,190.001
		s80.585,179.994,179.994,179.994c43.401,0,83.215-15.362,114.299-40.946C313.32,321.62,321.611,313.329,329.041,304.3z"/>
	<path style="fill:#69DAF4;" d="M334.989,190.001c0-80.079-64.918-144.995-144.995-144.995
		c-80.079,0-144.995,64.916-144.995,144.995s64.916,144.995,144.995,144.995C270.071,334.996,334.989,270.08,334.989,190.001
		L334.989,190.001z M199.307,154.063l19.562-20.276l12.661-13.541c7.495-8.016,20.456-7.76,28.216,0
		c7.76,7.76,8,20.706,0.001,28.216l-16.281,15.288l-17.353,16.935l27.911,92.216l-18.431,18.431l-45.782-75.864l-29.5,27.739
		l1.984,27.583l-15.511,15.512l-17.401-35.69l-35.69-17.399l15.512-15.513l27.584,1.986l27.739-29.501l-75.864-45.783l18.429-18.429
		L199.307,154.063z"/>
	<path style="fill:#E3E5E5;" d="M259.748,148.461c7.999-7.51,7.759-20.456-0.001-28.216s-20.721-8.016-28.216,0l-12.661,13.541
		l-19.562,20.276l-92.216-28.093l-18.429,18.429l75.864,45.783l-27.739,29.501l-27.584-1.986l-15.512,15.513l35.69,17.399
		l17.401,35.69l15.511-15.512l-1.984-27.583l29.5-27.739l45.782,75.864l18.431-18.431l-27.911-92.216l17.353-16.935L259.748,148.461
		z"/>
	<path style="fill:#6B6D72;" d="M329.041,304.3c-7.428,9.031-15.719,17.321-24.748,24.749l37.294,37.294l24.747-24.749
		L329.041,304.3z"/>
	<path style="fill:#F95C4B;" d="M366.334,341.594l-24.747,24.749l-7.07,7.07l120.558,120.559c10.694,10.695,28.194,10.695,38.89,0
		c10.695-10.695,10.695-28.194,0-38.89L373.406,334.524L366.334,341.594z"/>
</g>
<path d="M189.994,35.006c-85.464,0-154.995,69.53-154.995,154.995s69.531,154.995,154.995,154.995s154.995-69.53,154.995-154.995
	C344.989,104.537,275.458,35.006,189.994,35.006z M189.994,324.997c-74.437,0-134.996-60.559-134.996-134.995
	S115.557,55.006,189.994,55.006s134.996,60.559,134.996,134.996C324.989,264.439,264.43,324.997,189.994,324.997z"/>
<path d="M143.026,100.542c1.431,0,2.884-0.309,4.264-0.96c11.063-5.225,22.857-8.349,35.057-9.284
	c5.507-0.422,9.629-5.229,9.206-10.735c-0.422-5.508-5.227-9.613-10.735-9.206c-14.64,1.123-28.792,4.871-42.068,11.142
	c-4.994,2.358-7.13,8.318-4.772,13.313C135.684,98.424,139.278,100.542,143.026,100.542z"/>
<path d="M245.415,104.331c-8.185,0-15.708,3.227-21.188,9.087l-12.606,13.482l-15.257,15.813l-86.358-26.309
	c-3.535-1.076-7.374-0.117-9.985,2.495l-18.429,18.429c-2.174,2.175-3.227,5.229-2.855,8.28c0.372,3.053,2.127,5.764,4.76,7.353
	l65.269,39.39l-16.002,17.018l-22.839-1.645c-2.896-0.199-5.737,0.852-7.79,2.903L86.622,226.14
	c-2.285,2.286-3.325,5.535-2.792,8.723c0.534,3.188,2.575,5.921,5.48,7.337l32.595,15.892l15.892,32.593
	c1.417,2.905,4.149,4.946,7.337,5.48c3.188,0.53,6.437-0.507,8.722-2.792l15.511-15.511c2.052-2.052,3.111-4.895,2.903-7.789
	l-1.643-22.839l17.018-16.002l39.388,65.268c1.589,2.633,4.3,4.388,7.353,4.76c0.404,0.049,0.808,0.073,1.21,0.073
	c2.635,0,5.184-1.042,7.071-2.929l18.431-18.431c2.607-2.607,3.568-6.439,2.5-9.968l-26.151-86.404l12.937-12.626l16.212-15.221
	c5.717-5.369,8.935-12.727,9.061-20.715c0.128-8.152-3.092-16.12-8.835-21.863C261.197,107.554,253.396,104.331,245.415,104.331z
	 M252.904,141.174l-16.281,15.286c-0.047,0.044-0.094,0.089-0.14,0.134L219.13,173.53c-2.67,2.605-3.668,6.481-2.587,10.053
	l26.175,86.483l-5.164,5.164L198.371,210.3c-1.561-2.586-4.207-4.328-7.2-4.74c-0.455-0.063-0.91-0.093-1.362-0.093
	c-2.528,0-4.983,0.96-6.85,2.715l-29.5,27.739c-2.192,2.061-3.34,5.001-3.124,8.003l1.656,23.025l-2.366,2.366l-11.257-23.086
	c-0.978-2.006-2.6-3.628-4.605-4.605l-23.088-11.258l2.367-2.367l23.026,1.658c3.009,0.212,5.942-0.932,8.003-3.124l27.739-29.501
	c2.069-2.201,3.033-5.22,2.621-8.212c-0.411-2.993-2.153-5.64-4.74-7.2l-64.929-39.185l5.153-5.152l86.476,26.344
	c3.596,1.096,7.501,0.082,10.111-2.623l19.562-20.276c0.036-0.038,0.072-0.075,0.108-0.114l12.66-13.54
	c2.234-2.39,5.081-2.746,6.58-2.746c2.717,0,5.364,1.089,7.262,2.987c1.938,1.937,3.023,4.637,2.98,7.407
	C255.618,137.253,254.64,139.544,252.904,141.174z"/>
<path d="M501.034,448.011L380.476,327.452c-1.875-1.875-4.419-2.929-7.071-2.929s-5.196,1.054-7.071,2.929l-24.017-24.018
	c23.651-31.678,37.67-70.948,37.67-113.433c0-104.764-85.23-189.994-189.994-189.994S0,85.239,0,190.001
	s85.23,189.994,189.994,189.994c42.484,0,81.754-14.019,113.433-37.67l24.017,24.018c-3.904,3.905-3.904,10.236,0.001,14.142
	l120.558,120.557c7.061,7.063,16.477,10.951,26.515,10.951s19.455-3.889,26.516-10.95
	C515.655,486.422,515.655,462.632,501.034,448.011z M19.999,190.001c0-93.735,76.259-169.994,169.994-169.994
	s169.994,76.259,169.994,169.994s-76.259,169.994-169.994,169.994S19.999,283.737,19.999,190.001z M329.535,318.937l22.657,22.657
	l-10.607,10.607l-22.657-22.657C322.6,326.15,326.141,322.608,329.535,318.937z M486.892,486.901
	c-3.284,3.284-7.679,5.093-12.375,5.093s-9.09-1.809-12.374-5.093L348.658,373.413l4.949-4.949l19.798-19.798l113.486,113.487
	C493.715,468.977,493.715,480.077,486.892,486.901z"/>
<path d="M208.766,91.781l0.495,0.096c0.605,0.11,1.206,0.163,1.801,0.163c4.74,0,8.949-3.384,9.827-8.213
	c0.988-5.434-2.616-10.64-8.05-11.628l-0.151-0.029c-5.414-1.086-10.684,2.429-11.767,7.845
	C199.838,85.43,203.35,90.698,208.766,91.781z"/>
<g>
</g>
<g>
</g>
<g>
</g>
<g>
</g>
<g>
</g>
<g>
</g>
<g>
</g>
<g>
</g>
<g>
</g>
<g>
</g>
<g>
</g>
<g>
</g>
<g>
</g>
<g>
</g>
<g>
</g>
</svg>
