<svg width="512" height="512" viewBox="0 0 512 512" fill="none" xmlns="http://www.w3.org/2000/svg">
<path d="M45 300.008C20.1875 300.008 0 279.82 0 255.008C0 230.195 20.1875 210.008 45 210.008C69.8164 210.008 90.0039 230.195 90.0039 255.008C90.0039 279.82 69.8164 300.008 45 300.008ZM237.008 100.004C209.438 100.004 187.004 77.5742 187.004 50C187.004 22.4297 209.438 0 237.008 0C264.578 0 287.008 22.4297 287.008 50C287.008 77.5742 264.578 100.004 237.008 100.004ZM237.008 40C231.492 40 227.008 44.4883 227.008 50C227.008 55.5156 231.492 60 237.008 60C242.52 60 247.008 55.5156 247.008 50C247.008 44.4883 242.52 40 237.008 40ZM100.504 162.004C87.5469 162.004 75.3672 156.961 66.207 147.797C57.0469 138.637 52 126.457 52 113.504C52 100.547 57.0469 88.3672 66.207 79.207C75.3672 70.0469 87.5469 65 100.504 65C113.457 65 125.637 70.0469 134.801 79.207H134.797H134.801C143.961 88.3672 149.004 100.547 149.004 113.504C149.004 126.457 143.961 138.637 134.797 147.801C125.637 156.961 113.457 162.004 100.504 162.004ZM100.504 105.004C99.1875 105.004 96.6602 105.324 94.4922 107.492C92.3242 109.66 92.0039 112.188 92.0039 113.504C92.0039 114.82 92.3242 117.348 94.4922 119.512C96.6602 121.68 99.1875 122.004 100.504 122.004C101.816 122.004 104.348 121.68 106.512 119.516C108.68 117.348 109.004 114.82 109.004 113.504C109.004 112.188 108.68 109.66 106.516 107.492H106.512C104.348 105.324 101.816 105.004 100.504 105.004ZM382.512 164.004C367.688 164.004 353.75 158.23 343.266 147.75C332.781 137.266 327.008 123.328 327.008 108.504C327.008 93.6797 332.781 79.7422 343.266 69.2578C353.75 58.7734 367.688 53 382.512 53C397.336 53 411.273 58.7734 421.758 69.2578C432.238 79.7422 438.012 93.6797 438.012 108.504C438.012 123.328 432.238 137.266 421.758 147.75C411.273 158.23 397.336 164.004 382.512 164.004ZM382.512 93.0039C378.371 93.0039 374.48 94.6133 371.551 97.543C368.625 100.473 367.012 104.363 367.012 108.504C367.012 112.645 368.621 116.535 371.551 119.461C374.48 122.391 378.371 124.004 382.512 124.004C386.652 124.004 390.543 122.391 393.469 119.465C396.398 116.535 398.012 112.645 398.012 108.504C398.012 104.363 396.398 100.473 393.469 97.543C390.543 94.6133 386.652 93.0039 382.512 93.0039ZM447.012 318.98C430.367 318.98 413.723 312.645 401.051 299.973C375.703 274.629 375.703 233.387 401.051 208.043C426.395 182.699 467.633 182.699 492.977 208.043C518.32 233.387 518.32 274.629 492.977 299.973C480.305 312.645 463.66 318.98 447.012 318.98ZM447.012 229.02C440.609 229.02 434.207 231.457 429.336 236.328C419.586 246.078 419.586 261.938 429.336 271.688C439.082 281.434 454.941 281.434 464.691 271.688C474.438 261.938 474.438 246.078 464.691 236.328C459.816 231.457 453.414 229.02 447.012 229.02V229.02ZM383.012 484.98C365.34 484.98 347.672 478.258 334.219 464.805C307.316 437.902 307.316 394.125 334.219 367.223C361.121 340.316 404.898 340.316 431.801 367.223C458.707 394.125 458.707 437.902 431.801 464.805C418.352 478.258 400.68 484.98 383.012 484.98V484.98ZM383.012 387.023C375.586 387.023 368.16 389.852 362.504 395.504C351.199 406.812 351.199 425.211 362.504 436.52C373.812 447.828 392.211 447.828 403.52 436.52C414.824 425.211 414.824 406.812 403.52 395.504C397.863 389.852 390.437 387.023 383.012 387.023ZM92.5 438.992C81.3633 438.992 70.2227 434.75 61.7422 426.273C44.7812 409.309 44.7812 381.711 61.7422 364.75C78.7031 347.789 106.301 347.789 123.262 364.75C140.223 381.711 140.223 409.309 123.262 426.27C114.781 434.75 103.641 438.992 92.5 438.992ZM210.004 512C202.32 512 194.641 509.078 188.793 503.23C177.094 491.531 177.094 472.496 188.789 460.801L188.793 460.797C200.488 449.102 219.523 449.102 231.219 460.797C242.918 472.496 242.918 491.531 231.223 503.227C225.371 509.074 217.688 512 210.004 512V512Z" fill="url(#paint0_linear)"/>
<defs>
<linearGradient id="paint0_linear" x1="255.992" y1="0" x2="255.992" y2="512" gradientUnits="userSpaceOnUse">
<stop stop-color="#333333"/>
<stop offset="1" stop-color="#009EFD"/>
</linearGradient>
</defs>
</svg>
