<svg width="300" height="300" viewBox="0 0 300 300" fill="none" xmlns="http://www.w3.org/2000/svg">
<path d="M99.41 95.701L95.995 82.922C88.606 84.897 81.257 87.346 74.154 90.199L79.083 102.473C85.699 99.817 92.535 97.54 99.41 95.701Z" fill="white"/>
<path d="M59.714 111.641L53.35 100.046C46.647 103.727 40.093 107.856 33.868 112.32L41.579 123.066C47.376 118.911 53.476 115.067 59.714 111.641Z" fill="white"/>
<path d="M0 143.421L10.054 152.014C14.683 146.598 19.694 141.409 24.942 136.592L15.999 126.849C10.358 132.025 4.975 137.599 0 143.421Z" fill="white"/>
<path d="M285.464 138.098L275.725 147.045C280.548 152.296 285.098 157.893 289.253 163.677L300 155.966C295.534 149.748 290.647 143.736 285.464 138.098Z" fill="white"/>
<path d="M243.18 119.253C249.112 123.188 254.874 127.533 260.295 132.162L268.883 122.104C263.057 117.127 256.867 112.458 250.485 108.23L243.18 119.253Z" fill="white"/>
<path d="M230.536 96.687C223.702 93.272 216.578 90.235 209.35 87.658L204.91 100.117C211.636 102.513 218.266 105.339 224.624 108.518L230.536 96.687Z" fill="white"/>
<path d="M110.915 105.603L119.904 105.607L127.397 94.244L141.825 94.343L132.741 125.663V126.404C132.741 130.359 135.959 133.579 139.914 133.579H152.946L173.627 95.225L189.611 95.754C197.884 95.754 204.616 89.262 204.616 81.287C204.62 77.368 203.022 73.697 200.119 70.953C197.302 68.29 193.574 66.82 189.454 66.82C189.447 66.82 189.443 66.82 189.441 66.82L173.49 67.353L152.95 29.262L139.896 29.258C135.95 29.269 132.741 32.49 132.741 36.435V37.173L141.752 68.243L127.263 68.369L119.9 57.23L110.917 57.232C107.227 57.232 104.227 60.232 104.227 63.92V98.916C104.227 102.605 107.224 105.603 110.915 105.603ZM114.629 68.136H114.633L121.7 78.827L155.577 78.534L144.302 39.667H146.736L167.393 77.972L189.617 77.229C190.898 77.229 192.088 77.688 192.97 78.519C193.77 79.275 194.209 80.256 194.209 81.285C194.209 83.527 192.146 85.348 189.785 85.35L167.53 84.614L146.734 123.173H144.3L155.65 84.035L121.82 83.799L114.629 94.695V68.136Z" fill="white"/>
<path d="M171.305 156.619C162.648 154.646 153.798 153.645 144.996 153.645C89.634 153.645 42.363 191.401 30.047 245.459C28.134 253.862 27.177 262.325 27.104 270.741H40.332C40.389 265.479 40.832 260.195 41.692 254.923C49.13 256.83 56.792 259.889 59.254 261.898C59.139 262.751 59.007 263.615 58.873 264.486C58.575 266.415 58.254 268.549 58.121 270.742H71.391C71.53 269.243 71.766 267.663 71.944 266.501C72.189 264.907 72.431 263.32 72.583 261.786C73.405 253.48 63.986 246.838 44.623 242.026C55.274 205.696 84.07 178.671 119.783 169.919C117.815 173.724 116.23 178.432 115.568 184.388C115.246 187.307 114.827 189.943 114.459 192.264C112.978 201.624 111.446 211.303 124.103 216.937C131.201 220.107 136.167 220.632 140.155 221.048C142.095 221.251 143.805 221.432 145.622 221.897C146.263 224.046 145.939 229.297 145.809 231.396C145.644 234.061 145.476 236.781 146.29 239.003C147.099 243.544 150.456 257.927 161.595 270.737H181.5C162.366 258.245 159.318 236.889 159.192 235.95L158.921 233.772C158.947 233.256 158.981 232.692 159.011 232.209C159.436 225.325 160.23 212.504 150.416 209.506C147.026 208.472 144.112 208.168 141.541 207.897C137.855 207.509 134.674 207.174 129.49 204.862C126.097 203.35 126.097 203.35 127.524 194.334C127.914 191.867 128.357 189.068 128.712 185.841C129.722 176.735 133.559 170.964 137.025 167.183C139.659 166.987 142.315 166.868 144.996 166.868C152.81 166.868 160.673 167.756 168.369 169.509C195.661 175.727 218.9 192.198 233.799 215.887C243.897 231.944 249.331 250.015 249.858 268.492C248.758 269.213 247.389 269.973 245.917 270.738H263.091C262.968 249.012 256.85 227.698 244.995 208.848C228.213 182.172 202.043 163.622 171.305 156.619Z" fill="white"/>
</svg>
